<svg width="128" height="128" viewBox="0 0 128 128" fill="none" xmlns="http://www.w3.org/2000/svg">

<defs>
  
<filter id="shadow" x="-20%" y="-20%" width="140%" height="150%" color-interpolation-filters="sRGB">
  <feDropShadow dx="0" dy="10" stdDeviation="8" flood-color="#0F172A" flood-opacity="0.28"/>
</filter>

  <linearGradient id="base" x1="18" y1="12" x2="110" y2="110" gradientUnits="userSpaceOnUse">
    <stop stop-color="#8A9BB0"/>
    <stop offset="1" stop-color="#172235"/>
  </linearGradient>
  <linearGradient id="shine" x1="34" y1="18" x2="94" y2="54" gradientUnits="userSpaceOnUse">
    <stop stop-color="#FFFFFF" stop-opacity="0.8"/>
    <stop offset="1" stop-color="#FFFFFF" stop-opacity="0"/>
  </linearGradient>
</defs>

<rect x="18" y="24" width="92" height="92" rx="31" fill="#101827"/>
<rect x="18" y="12" width="92" height="92" rx="31" fill="url(#base)" filter="url(#shadow)"/>
<rect x="22" y="16" width="84" height="84" rx="27" stroke="#FFFFFF" stroke-opacity="0.42" stroke-width="4"/>

<path d="M38 20H90C99 20 106 27 106 36V42C106 42 89 32 64 32C39 32 22 42 22 42V36C22 27 29 20 38 20Z" fill="url(#shine)"/>

<g transform="translate(32 32)">

<path d="M8 13L25 7L41 13L56 7V54L41 60L25 54L8 60V13Z" fill="#FFFFFF"/>
<path d="M25 7V54M41 13V60" stroke="#38BDF8" stroke-width="4"/>
<path d="M34 38C34 38 47 28 47 18C47 11 41 6 34 6C27 6 21 11 21 18C21 28 34 38 34 38Z" fill="#FB7185"/>
<circle cx="34" cy="18" r="6" fill="#FFFFFF"/>

</g>

</svg>
